<?xml version="1.0" standalone="no"?><!DOCTYPE svg PUBLIC "-//W3C//DTD SVG 1.1//EN" "http://www.w3.org/Graphics/SVG/1.1/DTD/svg11.dtd"><svg t="1498548143434" class="icon" style="" viewBox="0 0 1024 1024" version="1.1" xmlns="http://www.w3.org/2000/svg" p-id="12707" xmlns:xlink="http://www.w3.org/1999/xlink" ><defs><style type="text/css"></style></defs><path d="M710.4 691.2 710.4 262.4 556.8 262.4c-19.2 0-32 12.8-32 32 0 0 0 0 0 0 0 0 0 0 0 0L524.8 704c6.4-6.4 19.2-12.8 32-12.8L710.4 691.2z" p-id="12708" fill="#ffb400"></path><path d="M467.2 262.4 313.6 262.4l0 428.8 153.6 0c12.8 0 25.6 6.4 32 12.8L499.2 294.4C499.2 275.2 486.4 262.4 467.2 262.4z" p-id="12709" fill="#ffb400"></path><path d="M512 0C230.4 0 0 230.4 0 512c0 281.6 230.4 512 512 512 281.6 0 512-230.4 512-512C1024 230.4 793.6 0 512 0zM800 768c0 12.8-6.4 19.2-19.2 19.2l-70.4 0L313.6 787.2 243.2 787.2c-12.8 0-19.2-6.4-19.2-19.2L224 275.2c0-6.4 6.4-12.8 12.8-12.8 6.4 0 12.8 6.4 12.8 12.8l0 486.4 64 0L512 761.6c-6.4 0-6.4-6.4-6.4-12.8 0 0 0 0 0 0 0-19.2-12.8-32-32-32L307.2 716.8c0 0 0 0 0 0 0 0 0 0 0 0-6.4 0-12.8-6.4-12.8-12.8L294.4 249.6c0-6.4 6.4-12.8 12.8-12.8 0 0 0 0 0 0 0 0 0 0 0 0l166.4 0c19.2 0 32 6.4 44.8 25.6 12.8-12.8 25.6-25.6 44.8-25.6l166.4 0c6.4 0 12.8 6.4 12.8 12.8 0 0 0 0 0 0 0 0 0 0 0 0L742.4 704c0 6.4-6.4 12.8-12.8 12.8L556.8 716.8c-19.2 0-32 12.8-32 32 0 0 0 0 0 0 0 6.4-6.4 6.4-6.4 12.8l198.4 0 64 0L780.8 275.2c0-6.4 6.4-12.8 12.8-12.8 6.4 0 12.8 6.4 12.8 12.8L806.4 768z" p-id="12710" fill="#ffb400"></path></svg>
