<?xml version="1.0" standalone="no"?><!DOCTYPE svg PUBLIC "-//W3C//DTD SVG 1.1//EN" "http://www.w3.org/Graphics/SVG/1.1/DTD/svg11.dtd"><svg t="1498187331307" class="icon" style="" viewBox="0 0 1024 1024" version="1.1" xmlns="http://www.w3.org/2000/svg" p-id="5338" xmlns:xlink="http://www.w3.org/1999/xlink"><defs><style type="text/css"></style></defs><path d="M512 1024C229.23 1024 0 794.77 0 512S229.23 0 512 0s512 229.23 512 512-229.23 512-512 512z m-96.167-489.738c-4.336-1.194-16.698-14.746-20.389-20.06-8.144-11.582-13.944-21.314-19.275-34.747l-8.964-25.254c-2.285-6.866-4.687-19.88-9.257-24.538-7.323-7.463-20.857-7.224-26.775 2.985-5.097 8.777-8.73 18.568-13.241 27.642-2.344 4.657-3.75 9.672-5.86 14.449-7.205 16.239-15.056 45.255-18.337 63.225-1.7 9.015-3.75 21.075-3.691 30.27 0.059 8.955-0.293 18.447 0.351 26.866 1.29 16 4.277 31.583 8.027 46.627 3.691 14.867 14.12 40.12 22.03 52.3 0.995 1.492 1.816 2.865 2.753 4.418a136.788 136.788 0 0 0 14.002 19.702c6.035 7.045 9.257 10.806 15.995 17.672 5.566 5.672 11.718 10.866 17.987 15.701 8.963 6.807 15.35 10.628 24.49 16.18 10.135 6.21 21.033 10.687 32.223 14.806 3.34 1.195 6.68 2.388 10.019 3.344 1.875 0.537 3.105 1.074 5.155 1.612a84.61 84.61 0 0 1 5.566 1.493l10.898 2.507c0.937 0.18 1.933 0.359 2.87 0.538l-0.527-0.298c-0.703-0.359-1.348-0.777-1.992-1.195l-1.992-1.313c-0.703-0.477-1.289-0.836-1.933-1.254-0.645-0.477-1.29-0.895-1.875-1.373a11.501 11.501 0 0 1-0.879-0.656c-4.336-3.344-10.487-8.3-13.65-12.359l-2.403-2.627c-1.64-1.672-2.988-3.642-4.394-5.552a70.536 70.536 0 0 1-2.695-3.821l-1.289-1.97c-0.41-0.716-0.82-1.254-1.23-1.97-1.7-2.806-2.988-5.672-4.57-8.478-0.82-1.493-1.29-2.985-1.992-4.538-0.762-1.552-1.23-3.044-1.875-4.716-1.816-4.955-3.28-10.03-4.335-15.403-0.762-3.702-1.524-7.642-1.758-11.403-0.059-1.91-0.351-4.12-0.468-6.03-0.235-4.299 0-8.836 0-13.134 0-2.09 0.293-4.359 0.351-6.389 0-3.164 0.82-8.597 1.406-11.642 0.703-3.522 1.524-7.164 2.637-10.507 0.293-0.836 0.468-1.552 0.761-2.448 1.113-3.224 2.578-6.089 3.867-9.194 2.11-5.015 5.508-10.149 8.027-14.985l3.164-6.627c0.351-0.896 0.644-1.493 0.938-2.329 2.578-7.283 3.574-9.97 4.687-18.268 0.059-0.657 0.234-2.329 0.293-3.105 0.117-4.538-1.29-7.642 0.879-11.523 1.289-2.328 4.92-4.955 8.788-3.88 4.687 1.253 9.901 6.208 13.182 9.552l2.285 2.627c0.352 0.418 0.469 0.537 0.762 0.955 7.616 10.448 10.37 20.657 12.362 33.612 0.117 0.896 0.351 2.21 0.41 2.985l1.055-1.671c1.992-3.403 5.097-9.374 6.386-13.016 0.234-0.716 0.528-1.194 0.762-1.97l3.457-10.269c2.753-9.134 4.101-18.865 5.097-28.359 0.41-4.119 0.41-6.627 0.527-10.507l0.176-5.553c0-5.014-0.585-16.18-1.289-20.955-0.468-3.284-1.464-6.687-0.585-9.792 0.761-2.746 2.93-4.716 5.507-5.612 4.102-1.372 8.73 1.434 12.42 3.045 4.22 1.851 8.496 4.537 12.363 7.105 6.444 4.418 12.538 9.671 17.635 15.523 0.468 0.537 0.879 0.836 1.347 1.433 0.469 0.597 0.762 0.955 1.23 1.492l3.633 4.597c4.51 5.552 9.198 14.388 12.186 21.135 0.293 0.657 0.468 1.313 0.762 1.97 1.113 2.269 1.874 4.716 2.695 7.104l3.398 11.762c1.523 5.373 2.636 13.552 3.164 19.045 0.995 10.508 0.761 21.851-0.235 32-0.468 5.672-1.64 11.404-2.519 16.897-0.117 0.656-0.468 1.731-0.468 2.447 2.05-0.537 8.026-7.104 9.842-9.671 3.926-5.612 6.738-10.27 9.257-16.777l4.336-12.179c1.113-3.344 2.285-9.612 4.453-11.881 3.574-3.582 10.077-3.463 12.948 1.433 2.46 4.239 4.218 9.015 6.386 13.374 1.113 2.269 1.816 4.657 2.87 6.985 3.457 7.821 7.266 21.851 8.847 30.508 0.762 4.359 1.758 10.21 1.758 14.627 0 4.299 0.117 8.896-0.176 12.956-0.645 7.761-2.05 15.284-3.867 22.508-1.757 7.224-6.796 19.403-10.663 25.254a25.896 25.896 0 0 0-1.289 2.15c-1.933 3.343-4.277 6.567-6.796 9.492-2.87 3.403-4.453 5.253-7.675 8.537-1.991 1.97-4.042 3.88-6.21 5.612 9.96-3.403 19.041-7.164 28.181-11.88 1.64-0.777 2.988-1.493 4.453-2.27l8.788-5.014c1.465-0.776 2.813-1.612 4.219-2.508l4.101-2.626c1.407-1.075 2.637-1.791 3.985-2.687 1.347-0.896 2.636-1.851 3.925-2.806a37.78 37.78 0 0 0 1.816-1.433c8.964-6.806 21.678-17.135 28.299-25.553l4.863-5.373c3.398-3.463 6.269-7.582 9.14-11.463 1.991-2.746 3.69-5.075 5.565-7.94 0.996-1.493 1.758-2.627 2.696-4.06a257.22 257.22 0 0 1 2.578-4.18c3.457-5.731 6.21-11.761 9.433-17.612 1.699-3.044 2.695-6.09 4.16-9.314 1.523-3.283 2.577-6.328 3.808-9.73 3.808-10.27 6.854-20.777 9.08-31.942 1.465-7.642 3.047-15.88 3.516-23.582 0.234-3.94 0.878-8.538 1.054-12.538 0.469-8.896 0-18.269 0-27.224 0-4.358-0.644-9.015-0.702-13.195-0.06-6.567-1.758-17.79-2.988-24.12-1.465-7.224-3.106-14.865-5.39-21.731-0.586-1.79-1.055-3.283-1.64-5.134-2.285-6.627-5.332-12.657-7.968-19.105-4.336-10.388-11.366-21.015-16.64-30.986l-6.561-13.731c-0.762-1.791-1.347-3.045-1.992-4.776-5.273-15.105-7.323-20.717-9.608-37.792-0.176-1.433-0.586-4.896-0.586-6.568-0.293-9.314 2.578-15.701-1.875-23.881-2.636-4.776-10.194-10.15-18.162-8-9.726 2.627-20.506 12.956-27.302 19.821l-4.746 5.493c-0.703 0.896-0.938 1.075-1.64 1.97-15.761 21.613-21.502 42.748-25.546 69.554-0.293 1.91-0.82 4.597-0.82 6.268l-2.226-3.522c-4.16-7.045-10.546-19.403-13.183-26.926-0.527-1.433-1.113-2.507-1.699-4.06l-7.089-21.373c-5.742-18.926-8.554-38.986-10.546-58.688-0.879-8.537-0.879-13.731-1.113-21.791l-0.351-11.463c0-10.389 1.23-33.494 2.636-43.464 0.996-6.746 2.988-13.851 1.23-20.24-1.581-5.73-6.034-9.731-11.425-11.581-8.495-2.866-18.045 2.985-25.72 6.328-8.788 3.821-17.635 9.314-25.603 14.687-13.3 9.075-26.013 19.94-36.56 32.18-0.995 1.134-1.816 1.731-2.753 2.925-0.937 1.254-1.64 1.911-2.578 3.105l-7.5 9.553c-9.373 11.523-19.04 29.791-25.192 43.762-0.585 1.314-0.996 2.627-1.64 4.06-2.226 4.657-3.926 9.791-5.508 14.747l-7.148 24.299c-3.105 11.164-5.39 28.06-6.503 39.523-2.051 21.732-1.524 45.195 0.41 66.21 1.113 11.702 3.457 23.583 5.332 34.986 0.23 1.429 0.932 3.578 0.99 5.13z" p-id="5339" fill="#ff8a00"></path></svg>
