<?xml version="1.0" standalone="no"?><!DOCTYPE svg PUBLIC "-//W3C//DTD SVG 1.1//EN" "http://www.w3.org/Graphics/SVG/1.1/DTD/svg11.dtd"><svg t="1498542040169" class="icon" style="" viewBox="0 0 1024 1024" version="1.1" xmlns="http://www.w3.org/2000/svg" p-id="2414" xmlns:xlink="http://www.w3.org/1999/xlink"><defs><style type="text/css"></style></defs><path d="M389.068 530.939c-11.322 0-20.498 36.708-20.498 81.985v40.998c0 45.282 9.177 81.987 20.498 81.987s20.497-36.704 20.497-81.987v-40.998c0-45.276-9.178-81.985-20.497-81.985z" p-id="2415" fill="#00da9f"></path><path d="M635.038 530.939c-11.321 0-20.498 36.708-20.498 81.985v40.998c0 45.282 9.178 81.987 20.498 81.987s20.494-36.704 20.494-81.987v-40.998c0-45.276-9.177-81.985-20.494-81.985z" p-id="2416" fill="#00da9f"></path><path d="M512.053 489.947c-11.321 0-20.497 36.708-20.497 81.986v40.998c0 45.282 9.177 81.986 20.497 81.986s20.498-36.703 20.498-81.986v-40.998c0-45.282-9.178-81.986-20.498-81.986z" p-id="2417" fill="#00da9f"></path><path d="M979.318 318.428c-25.337-61.17-62.828-117.278-109.646-164.099-46.821-46.821-102.933-84.308-164.106-109.649-61.17-25.337-127.358-38.505-193.572-38.505-66.209 0-132.394 13.169-193.572 38.505-61.17 25.34-117.278 62.826-164.099 109.649-46.821 46.823-84.308 102.928-109.65 164.099-25.337 61.179-38.503 127.363-38.503 193.572 0 66.214 13.166 132.4 38.503 193.572 25.341 61.17 62.828 117.283 109.65 164.106 46.823 46.816 102.928 84.308 164.099 109.646 61.179 25.341 127.363 38.503 193.572 38.503 66.214 0 132.4-13.162 193.572-38.503 61.17-25.337 117.283-62.828 164.106-109.646 46.816-46.821 84.308-102.933 109.646-164.106 25.341-61.17 38.508-127.358 38.508-193.572 0-66.211-13.166-132.396-38.508-193.572zM717.182 571.924v185.867c0 22.611-18.174 40.947-40.884 40.947h-328.992c-22.579 0-40.887-18.174-40.887-40.947v-185.887c-78.933-0.327-142.817-64.068-142.817-142.675 0-78.819 64.212-142.715 143.419-142.715 13.741 0 26.972 2.038 39.547 5.622 40.96-41.26 97.808-66.875 160.697-66.875 64.038 0 121.725 26.62 162.828 69.209 14.708-5.067 30.433-7.957 46.875-7.957 79.218 0 143.428 63.897 143.428 142.715 0.001 78.742-64.098 142.576-143.214 142.697z" p-id="2418" fill="#00da9f"></path></svg>
