<?xml version="1.0" standalone="no"?><!DOCTYPE svg PUBLIC "-//W3C//DTD SVG 1.1//EN" "http://www.w3.org/Graphics/SVG/1.1/DTD/svg11.dtd"><svg t="1498185785597" class="icon" style="" viewBox="0 0 1024 1024" version="1.1" xmlns="http://www.w3.org/2000/svg" p-id="2372" xmlns:xlink="http://www.w3.org/1999/xlink" ><defs><style type="text/css"></style></defs><path d="M672.933274 653.934592l-13.051802 13.055386c-11.044966 10.946355-29.385421 11.424154-40.900198 1.153229l-150.554931-129.512653c-11.522867-10.276045-20.262298-31.400141-19.492762-46.756864l15.752397-248.666522c0.67543-15.357747 14.007603-28.034458 29.479629-28.034458l18.527718 0c15.358362 0 28.605645 12.67671 29.375181 28.034458l12.863488 203.634893c0.769536 15.460147 9.893683 37.447885 20.169216 48.966246l98.98537 117.324083C684.364083 624.653722 683.886182 642.988339 672.933274 653.934592zM526.232166 46.585037c-248.200806 0-449.537434 201.234227-449.537434 449.604915 0 248.375808 201.337651 449.615155 449.537434 449.615155 248.377856 0 449.725645-201.239347 449.725645-449.615155C975.957914 247.819162 774.610022 46.585037 526.232166 46.585037z" p-id="2373" fill="#ffc600"></path></svg>
