<?xml version="1.0" standalone="no"?><!DOCTYPE svg PUBLIC "-//W3C//DTD SVG 1.1//EN" "http://www.w3.org/Graphics/SVG/1.1/DTD/svg11.dtd"><svg class="icon"  viewBox="0 0 1024 1024" version="1.1" xmlns="http://www.w3.org/2000/svg"><path fill="#4da1ff" d="M512.021 61.675C265.941 61.675 64.603 264.321 64.603 512s201.339 450.326 447.418 450.326S959.44 759.679 959.44 512 758.1 61.675 512.02 61.675z m0 135.097c76.062 0 134.226 58.542 134.226 135.098S588.082 466.968 512.02 466.968 377.796 408.425 377.796 331.87s58.164-135.098 134.225-135.098z m0 639.462c-111.854 0-210.286-58.542-268.45-144.104 0-90.065 178.966-139.6 268.45-139.6s268.452 49.536 268.452 139.6c-58.165 85.562-156.597 144.104-268.452 144.104z" /></svg>
